<?xml version="1.0" encoding="UTF-8"?>
<svg width="20px" height="20px" viewBox="0 0 20 20" version="1.1" xmlns="http://www.w3.org/2000/svg" xmlns:xlink="http://www.w3.org/1999/xlink">
    <title>github</title>
    <defs>
        <rect id="path-1" x="0" y="0" width="1600" height="1200"></rect>
    </defs>
    <g id="Page-1" stroke="none" stroke-width="1" fill="none" fill-rule="evenodd">
        <g id="Home" transform="translate(-1372.000000, -1146.000000)">
            <mask id="mask-2" fill="white">
                <use xlink:href="#path-1"></use>
            </mask>
            <rect stroke="#979797" x="0.5" y="0.5" width="1599" height="1199"></rect>
            <g id="Group-4" mask="url(#mask-2)">
                <g transform="translate(-137.000000, 129.000000)"></g>
            </g>
            <g id="Footer" mask="url(#mask-2)">
                <g transform="translate(60.000000, 1145.000000)" id="github">
                    <g transform="translate(1312.000000, 1.000000)">
                        <path d="M10.0000763,0 C4.50748068,0 0,4.50744629 0,10 C0,14.6870422 3.28890447,18.9447021 7.65630841,20 L7.65630841,16.6915894 C7.22356585,16.7863464 6.8253084,16.789093 6.38478383,16.6592407 C5.79380639,16.4848328 5.31360866,16.091156 4.95716063,15.4908752 C4.72995554,15.1075745 4.32727301,14.691925 3.90719535,14.7224426 L3.80419773,13.5551453 C4.71256037,13.4773254 5.49839398,14.1085816 5.96485875,14.892273 C6.17207466,15.2407837 6.41057137,15.4450989 6.71666499,15.5354309 C7.01253518,15.6225586 7.33022561,15.5807495 7.70040664,15.4499817 C7.79333336,14.7088623 8.13284404,14.4314575 8.38934623,14.0408325 L8.38934623,14.0402222 C5.78465108,13.6517334 4.74658773,12.2698975 4.33459729,11.1791992 C3.78863363,9.73098754 4.08160461,7.92175293 5.04703557,6.77841188 C5.06580404,6.75613402 5.09967879,6.69784547 5.08655615,6.65710449 C4.64389527,5.3199768 5.18329759,4.21386719 5.20313419,4.09652711 C5.71400234,4.2475891 5.79701079,3.94454957 7.42223678,4.93194578 L7.70315326,5.10070801 C7.82064681,5.17074586 7.78372028,5.13076781 7.90121383,5.12191773 C8.57977737,4.93759156 9.29511486,4.83581543 9.99992371,4.82666016 C10.7100732,4.83581543 11.420833,4.93759156 12.1274729,5.12939453 L12.2184159,5.1385498 C12.2104814,5.1373291 12.2431354,5.13275148 12.2979149,5.10009766 C14.3281122,3.87039184 14.2551747,4.27230836 14.7996124,4.09530641 C14.8192964,4.21279906 15.351527,5.33691406 14.9135964,6.65710449 C14.8545445,6.83898926 16.6737112,8.50479125 15.6654027,11.1787414 C15.2534123,12.2698975 14.2155015,13.6517334 11.6108064,14.0402222 L11.6108064,14.0408325 C11.9446712,14.5497131 12.3458278,14.8204041 12.3436916,15.8702087 L12.3436916,20 C16.7112481,18.9447021 20,14.6870422 20,10 C20,4.50744629 15.4926719,0 10.0000763,0 Z" id="Path" fill="#000000" fill-rule="nonzero"></path>
                    </g>
                </g>
            </g>
        </g>
    </g>
</svg>