<?xml version="1.0" encoding="UTF-8"?>
<svg width="20px" height="20px" viewBox="0 0 20 20" version="1.1" xmlns="http://www.w3.org/2000/svg" xmlns:xlink="http://www.w3.org/1999/xlink">
    <title>linkedin</title>
    <defs>
        <rect id="path-1" x="0" y="0" width="1600" height="1200"></rect>
    </defs>
    <g id="Page-1" stroke="none" stroke-width="1" fill="none" fill-rule="evenodd">
        <g id="Home" transform="translate(-1338.000000, -1146.000000)">
            <mask id="mask-2" fill="white">
                <use xlink:href="#path-1"></use>
            </mask>
            <rect stroke="#979797" x="0.5" y="0.5" width="1599" height="1199"></rect>
            <g id="Group-4" mask="url(#mask-2)">
                <g transform="translate(-137.000000, 129.000000)"></g>
            </g>
            <g id="Footer" mask="url(#mask-2)">
                <g transform="translate(60.000000, 1145.000000)" id="linkedin">
                    <g transform="translate(1278.000000, 1.000000)">
                        <path d="M10,0 C4.47799684,0 0,4.47799684 0,10 C0,15.5220032 4.47799684,20 10,20 C15.5220032,20 20,15.5220032 20,10 C20,4.47799684 15.5220032,0 10,0 Z M7.09411621,15.1171875 L4.6586609,15.1171875 L4.6586609,7.79006957 L7.09411621,7.79006957 L7.09411621,15.1171875 Z M5.87646484,6.78955078 L5.8605957,6.78955078 C5.04333496,6.78955078 4.51477051,6.22695922 4.51477051,5.52383422 C4.51477051,4.80484008 5.0595093,4.2578125 5.89263914,4.2578125 C6.72576906,4.2578125 7.23846437,4.80484008 7.25433352,5.52383422 C7.25433352,6.22695922 6.72576906,6.78955078 5.87646484,6.78955078 Z M15.8758545,15.1171875 L13.4407043,15.1171875 L13.4407043,11.1973572 C13.4407043,10.2122498 13.0880738,9.54040527 12.2068787,9.54040527 C11.5341187,9.54040527 11.1334229,9.99359133 10.9573364,10.4310608 C10.8929443,10.587616 10.8772278,10.806427 10.8772278,11.0253906 L10.8772278,15.1171875 L8.44192504,15.1171875 C8.44192504,15.1171875 8.47381594,8.47747805 8.44192504,7.79006957 L10.8772278,7.79006957 L10.8772278,8.82751465 C11.2008667,8.32824707 11.7799377,7.61810305 13.072052,7.61810305 C14.6743774,7.61810305 15.8758545,8.66531371 15.8758545,10.9158325 L15.8758545,15.1171875 Z" id="Shape" fill="#000000" fill-rule="nonzero"></path>
                    </g>
                </g>
            </g>
        </g>
    </g>
</svg>